<?xml version="1.0" encoding="UTF-8"?>
<!DOCTYPE svg PUBLIC "-//W3C//DTD SVG 1.1//EN" "http://www.w3.org/Graphics/SVG/1.1/DTD/svg11.dtd">
<svg width="160mm" height="90mm" viewBox="0 0 16000 9000" version="1.1" xmlns="http://www.w3.org/2000/svg" xmlns:xlink="http://www.w3.org/1999/xlink" stroke-width="28.222" stroke-linejoin="round" xml:space="preserve">
 <path fill="rgb(255,255,255)" stroke="none" d="M 8055,8999 L 111,8999 111,19 15999,19 15999,8999 8055,8999 Z"/>
 <path fill="none" stroke="rgb(179,179,179)" stroke-linejoin="round" d="M 8119,7102 L 1125,7102 1125,199 15113,199 15113,7102 8119,7102 Z"/>
 <path fill="none" stroke="rgb(179,179,179)" stroke-linejoin="round" d="M 15113,7101 L 1125,7101"/>
 <path fill="none" stroke="rgb(179,179,179)" stroke-linejoin="round" d="M 15113,6114 L 1125,6114"/>
 <path fill="none" stroke="rgb(179,179,179)" stroke-linejoin="round" d="M 15113,5129 L 1125,5129"/>
 <path fill="none" stroke="rgb(179,179,179)" stroke-linejoin="round" d="M 15113,4142 L 1125,4142"/>
 <path fill="none" stroke="rgb(179,179,179)" stroke-linejoin="round" d="M 15113,3156 L 1125,3156"/>
 <path fill="none" stroke="rgb(179,179,179)" stroke-linejoin="round" d="M 15113,2169 L 1125,2169"/>
 <path fill="none" stroke="rgb(179,179,179)" stroke-linejoin="round" d="M 15113,1183 L 1125,1183"/>
 <path fill="none" stroke="rgb(179,179,179)" stroke-linejoin="round" d="M 15113,198 L 1125,198"/>
 <path fill="none" stroke="rgb(179,179,179)" stroke-linejoin="round" d="M 1125,7251 L 1125,7101"/>
 <path fill="none" stroke="rgb(179,179,179)" stroke-linejoin="round" d="M 1125,7251 L 1125,7101"/>
 <path fill="none" stroke="rgb(179,179,179)" stroke-linejoin="round" d="M 1761,7251 L 1761,7101"/>
 <path fill="none" stroke="rgb(179,179,179)" stroke-linejoin="round" d="M 1761,7251 L 1761,7101"/>
 <path fill="none" stroke="rgb(179,179,179)" stroke-linejoin="round" d="M 2396,7251 L 2396,7101"/>
 <path fill="none" stroke="rgb(179,179,179)" stroke-linejoin="round" d="M 2396,7251 L 2396,7101"/>
 <path fill="none" stroke="rgb(179,179,179)" stroke-linejoin="round" d="M 3032,7251 L 3032,7101"/>
 <path fill="none" stroke="rgb(179,179,179)" stroke-linejoin="round" d="M 3032,7251 L 3032,7101"/>
 <path fill="none" stroke="rgb(179,179,179)" stroke-linejoin="round" d="M 3668,7251 L 3668,7101"/>
 <path fill="none" stroke="rgb(179,179,179)" stroke-linejoin="round" d="M 3668,7251 L 3668,7101"/>
 <path fill="none" stroke="rgb(179,179,179)" stroke-linejoin="round" d="M 4304,7251 L 4304,7101"/>
 <path fill="none" stroke="rgb(179,179,179)" stroke-linejoin="round" d="M 4304,7251 L 4304,7101"/>
 <path fill="none" stroke="rgb(179,179,179)" stroke-linejoin="round" d="M 4939,7251 L 4939,7101"/>
 <path fill="none" stroke="rgb(179,179,179)" stroke-linejoin="round" d="M 4939,7251 L 4939,7101"/>
 <path fill="none" stroke="rgb(179,179,179)" stroke-linejoin="round" d="M 5576,7251 L 5576,7101"/>
 <path fill="none" stroke="rgb(179,179,179)" stroke-linejoin="round" d="M 5576,7251 L 5576,7101"/>
 <path fill="none" stroke="rgb(179,179,179)" stroke-linejoin="round" d="M 6211,7251 L 6211,7101"/>
 <path fill="none" stroke="rgb(179,179,179)" stroke-linejoin="round" d="M 6211,7251 L 6211,7101"/>
 <path fill="none" stroke="rgb(179,179,179)" stroke-linejoin="round" d="M 6847,7251 L 6847,7101"/>
 <path fill="none" stroke="rgb(179,179,179)" stroke-linejoin="round" d="M 6847,7251 L 6847,7101"/>
 <path fill="none" stroke="rgb(179,179,179)" stroke-linejoin="round" d="M 7483,7251 L 7483,7101"/>
 <path fill="none" stroke="rgb(179,179,179)" stroke-linejoin="round" d="M 7483,7251 L 7483,7101"/>
 <path fill="none" stroke="rgb(179,179,179)" stroke-linejoin="round" d="M 8119,7251 L 8119,7101"/>
 <path fill="none" stroke="rgb(179,179,179)" stroke-linejoin="round" d="M 8119,7251 L 8119,7101"/>
 <path fill="none" stroke="rgb(179,179,179)" stroke-linejoin="round" d="M 8754,7251 L 8754,7101"/>
 <path fill="none" stroke="rgb(179,179,179)" stroke-linejoin="round" d="M 8754,7251 L 8754,7101"/>
 <path fill="none" stroke="rgb(179,179,179)" stroke-linejoin="round" d="M 9391,7251 L 9391,7101"/>
 <path fill="none" stroke="rgb(179,179,179)" stroke-linejoin="round" d="M 9391,7251 L 9391,7101"/>
 <path fill="none" stroke="rgb(179,179,179)" stroke-linejoin="round" d="M 10026,7251 L 10026,7101"/>
 <path fill="none" stroke="rgb(179,179,179)" stroke-linejoin="round" d="M 10026,7251 L 10026,7101"/>
 <path fill="none" stroke="rgb(179,179,179)" stroke-linejoin="round" d="M 10662,7251 L 10662,7101"/>
 <path fill="none" stroke="rgb(179,179,179)" stroke-linejoin="round" d="M 10662,7251 L 10662,7101"/>
 <path fill="none" stroke="rgb(179,179,179)" stroke-linejoin="round" d="M 11298,7251 L 11298,7101"/>
 <path fill="none" stroke="rgb(179,179,179)" stroke-linejoin="round" d="M 11298,7251 L 11298,7101"/>
 <path fill="none" stroke="rgb(179,179,179)" stroke-linejoin="round" d="M 11934,7251 L 11934,7101"/>
 <path fill="none" stroke="rgb(179,179,179)" stroke-linejoin="round" d="M 11934,7251 L 11934,7101"/>
 <path fill="none" stroke="rgb(179,179,179)" stroke-linejoin="round" d="M 12569,7251 L 12569,7101"/>
 <path fill="none" stroke="rgb(179,179,179)" stroke-linejoin="round" d="M 12569,7251 L 12569,7101"/>
 <path fill="none" stroke="rgb(179,179,179)" stroke-linejoin="round" d="M 13206,7251 L 13206,7101"/>
 <path fill="none" stroke="rgb(179,179,179)" stroke-linejoin="round" d="M 13206,7251 L 13206,7101"/>
 <path fill="none" stroke="rgb(179,179,179)" stroke-linejoin="round" d="M 13841,7251 L 13841,7101"/>
 <path fill="none" stroke="rgb(179,179,179)" stroke-linejoin="round" d="M 13841,7251 L 13841,7101"/>
 <path fill="none" stroke="rgb(179,179,179)" stroke-linejoin="round" d="M 14477,7251 L 14477,7101"/>
 <path fill="none" stroke="rgb(179,179,179)" stroke-linejoin="round" d="M 14477,7251 L 14477,7101"/>
 <path fill="none" stroke="rgb(179,179,179)" stroke-linejoin="round" d="M 15113,7251 L 15113,7101"/>
 <path fill="none" stroke="rgb(179,179,179)" stroke-linejoin="round" d="M 15113,7251 L 15113,7101"/>
 <path fill="none" stroke="rgb(179,179,179)" stroke-linejoin="round" d="M 1125,7101 L 15113,7101"/>
 <path fill="none" stroke="rgb(179,179,179)" stroke-linejoin="round" d="M 976,7101 L 1125,7101"/>
 <path fill="none" stroke="rgb(179,179,179)" stroke-linejoin="round" d="M 976,7101 L 1125,7101"/>
 <path fill="none" stroke="rgb(179,179,179)" stroke-linejoin="round" d="M 976,6114 L 1125,6114"/>
 <path fill="none" stroke="rgb(179,179,179)" stroke-linejoin="round" d="M 976,6114 L 1125,6114"/>
 <path fill="none" stroke="rgb(179,179,179)" stroke-linejoin="round" d="M 976,5129 L 1125,5129"/>
 <path fill="none" stroke="rgb(179,179,179)" stroke-linejoin="round" d="M 976,5129 L 1125,5129"/>
 <path fill="none" stroke="rgb(179,179,179)" stroke-linejoin="round" d="M 976,4142 L 1125,4142"/>
 <path fill="none" stroke="rgb(179,179,179)" stroke-linejoin="round" d="M 976,4142 L 1125,4142"/>
 <path fill="none" stroke="rgb(179,179,179)" stroke-linejoin="round" d="M 976,3156 L 1125,3156"/>
 <path fill="none" stroke="rgb(179,179,179)" stroke-linejoin="round" d="M 976,3156 L 1125,3156"/>
 <path fill="none" stroke="rgb(179,179,179)" stroke-linejoin="round" d="M 976,2169 L 1125,2169"/>
 <path fill="none" stroke="rgb(179,179,179)" stroke-linejoin="round" d="M 976,2169 L 1125,2169"/>
 <path fill="none" stroke="rgb(179,179,179)" stroke-linejoin="round" d="M 976,1183 L 1125,1183"/>
 <path fill="none" stroke="rgb(179,179,179)" stroke-linejoin="round" d="M 976,1183 L 1125,1183"/>
 <path fill="none" stroke="rgb(179,179,179)" stroke-linejoin="round" d="M 976,198 L 1125,198"/>
 <path fill="none" stroke="rgb(179,179,179)" stroke-linejoin="round" d="M 976,198 L 1125,198"/>
 <path fill="none" stroke="rgb(179,179,179)" stroke-linejoin="round" d="M 1125,7101 L 1125,198"/>
 <path fill="none" stroke="rgb(0,69,134)" stroke-width="79" stroke-linejoin="round" d="M 1125,3156 L 8119,1824 10662,1529 13841,1085 15113,986"/>
 <path fill="rgb(0,69,134)" stroke="none" d="M 1001,3031 L 1001,3281 1249,3281 1249,3031 1001,3031 Z"/>
 <path fill="none" stroke="rgb(0,69,134)" stroke-linejoin="round" d="M 1001,3031 L 1001,3281 1249,3281 1249,3031 1001,3031 Z"/>
 <path fill="rgb(0,69,134)" stroke="none" d="M 7995,1699 L 7995,1949 8243,1949 8243,1699 7995,1699 Z"/>
 <path fill="none" stroke="rgb(0,69,134)" stroke-linejoin="round" d="M 7995,1699 L 7995,1949 8243,1949 8243,1699 7995,1699 Z"/>
 <path fill="rgb(0,69,134)" stroke="none" d="M 10538,1404 L 10538,1653 10786,1653 10786,1404 10538,1404 Z"/>
 <path fill="none" stroke="rgb(0,69,134)" stroke-linejoin="round" d="M 10538,1404 L 10538,1653 10786,1653 10786,1404 10538,1404 Z"/>
 <path fill="rgb(0,69,134)" stroke="none" d="M 13717,960 L 13717,1209 13965,1209 13965,960 13717,960 Z"/>
 <path fill="none" stroke="rgb(0,69,134)" stroke-linejoin="round" d="M 13717,960 L 13717,1209 13965,1209 13965,960 13717,960 Z"/>
 <path fill="rgb(0,69,134)" stroke="none" d="M 14989,861 L 14989,1111 15237,1111 15237,861 14989,861 Z"/>
 <path fill="none" stroke="rgb(0,69,134)" stroke-linejoin="round" d="M 14989,861 L 14989,1111 15237,1111 15237,861 14989,861 Z"/>
 <text class="TextShape"><tspan class="TextParagraph" font-family="DejaVu Sans, sans-serif" font-size="352px" font-weight="400"><tspan class="TextPosition" x="666" y="7221"><tspan fill="rgb(0,0,0)" stroke="none">0</tspan></tspan></tspan></text>
 <text class="TextShape"><tspan class="TextParagraph" font-family="DejaVu Sans, sans-serif" font-size="352px" font-weight="400"><tspan class="TextPosition" x="457" y="6235"><tspan fill="rgb(0,0,0)" stroke="none">20</tspan></tspan></tspan></text>
 <text class="TextShape"><tspan class="TextParagraph" font-family="DejaVu Sans, sans-serif" font-size="352px" font-weight="400"><tspan class="TextPosition" x="457" y="5249"><tspan fill="rgb(0,0,0)" stroke="none">40</tspan></tspan></tspan></text>
 <text class="TextShape"><tspan class="TextParagraph" font-family="DejaVu Sans, sans-serif" font-size="352px" font-weight="400"><tspan class="TextPosition" x="457" y="4262"><tspan fill="rgb(0,0,0)" stroke="none">60</tspan></tspan></tspan></text>
 <text class="TextShape"><tspan class="TextParagraph" font-family="DejaVu Sans, sans-serif" font-size="352px" font-weight="400"><tspan class="TextPosition" x="457" y="3276"><tspan fill="rgb(0,0,0)" stroke="none">80</tspan></tspan></tspan></text>
 <text class="TextShape"><tspan class="TextParagraph" font-family="DejaVu Sans, sans-serif" font-size="352px" font-weight="400"><tspan class="TextPosition" x="246" y="2289"><tspan fill="rgb(0,0,0)" stroke="none">100</tspan></tspan></tspan></text>
 <text class="TextShape"><tspan class="TextParagraph" font-family="DejaVu Sans, sans-serif" font-size="352px" font-weight="400"><tspan class="TextPosition" x="246" y="1304"><tspan fill="rgb(0,0,0)" stroke="none">120</tspan></tspan></tspan></text>
 <text class="TextShape"><tspan class="TextParagraph" font-family="DejaVu Sans, sans-serif" font-size="352px" font-weight="400"><tspan class="TextPosition" x="246" y="318"><tspan fill="rgb(0,0,0)" stroke="none">140</tspan></tspan></tspan></text>
</svg>